ffmpeg started on 2016-12-07 at 06:03:06
Report written to "Output/x264/results/ffmpeg/crowd_run_2160p50slow2000k.log"
Command line:
Tools/ffmpeg/ffmpeg -benchmark -y -i Input/y4m/crowd_run_2160p50.y4m -c:v libx264 -preset slow -b:v 2000k -an Output/x264/encoded/crowd_run_2160p50slow2000k.mkv
ffmpeg version N-82227-gdb23fde Copyright (c) 2000-2016 the FFmpeg developers
  built with gcc 5.4.0 (Ubuntu 5.4.0-6ubuntu1~16.04.2) 20160609
  configuration: --prefix=/home/jaroslav/ffmpeg_build --pkg-config-flags=--static --extra-cflags=-I/home/jaroslav/ffmpeg_build/include --extra-ldflags=-L/home/jaroslav/ffmpeg_build/lib --bindir=/home/jaroslav/bin --enable-gpl --enable-libass --enable-libfdk-aac --enable-libfreetype --enable-libmp3lame --enable-libopus --enable-libtheora --enable-libvorbis --enable-libvpx --enable-libx264 --enable-libx265 --enable-nvenc --enable-libmfx --enable-libxvid --enable-libgsm --enable-libopencore-amrnb --enable-version3 --enable-nonfree
  libavutil      55. 35.100 / 55. 35.100
  libavcodec     57. 66.101 / 57. 66.101
  libavformat    57. 57.100 / 57. 57.100
  libavdevice    57.  2.100 / 57.  2.100
  libavfilter     6. 66.100 /  6. 66.100
  libswscale      4.  3.100 /  4.  3.100
  libswresample   2.  4.100 /  2.  4.100
  libpostproc    54.  2.100 / 54.  2.100
Input #0, yuv4mpegpipe, from 'Input/y4m/crowd_run_2160p50.y4m':
  Duration: 00:00:10.00, start: 0.000000, bitrate: 4976642 kb/s
    Stream #0:0: Video: rawvideo (I420 / 0x30323449), yuv420p(progressive), 3840x2160, SAR 1:1 DAR 16:9, 50 fps, 50 tbr, 50 tbn, 50 tbc
[libx264 @ 0x30961c0] using SAR=1/1
[libx264 @ 0x30961c0] using cpu capabilities: MMX2 SSE2Fast SSSE3 SSE4.2 AVX FMA3 AVX2 LZCNT BMI2
[libx264 @ 0x30961c0] profile High, level 5.2
[libx264 @ 0x30961c0] 264 - core 148 - H.264/MPEG-4 AVC codec - Copyleft 2003-2016 - http://www.videolan.org/x264.html - options: cabac=1 ref=5 deblock=1:0:0 analyse=0x3:0x113 me=hex subme=8 psy=1 psy_rd=1.00:0.00 mixed_ref=1 me_range=16 chroma_me=1 trellis=2 8x8dct=1 cqm=0 deadzone=21,11 fast_pskip=1 chroma_qp_offset=-2 threads=6 lookahead_threads=1 sliced_threads=0 nr=0 decimate=1 interlaced=0 bluray_compat=0 constrained_intra=0 bframes=3 b_pyramid=2 b_adapt=1 b_bias=0 direct=3 weightb=1 open_gop=0 weightp=2 keyint=250 keyint_min=25 scenecut=40 intra_refresh=0 rc_lookahead=50 rc=abr mbtree=1 bitrate=2000 ratetol=1.0 qcomp=0.60 qpmin=0 qpmax=69 qpstep=4 ip_ratio=1.40 aq=1:1.00
Output #0, matroska, to 'Output/x264/encoded/crowd_run_2160p50slow2000k.mkv':
  Metadata:
    encoder         : Lavf57.57.100
    Stream #0:0: Video: h264 (libx264) (H264 / 0x34363248), yuv420p, 3840x2160 [SAR 1:1 DAR 16:9], q=-1--1, 2000 kb/s, 50 fps, 1k tbn, 50 tbc
    Metadata:
      encoder         : Lavc57.66.101 libx264
    Side data:
      cpb: bitrate max/min/avg: 0/0/2000000 buffer size: 0 vbv_delay: -1
Stream mapping:
  Stream #0:0 -> #0:0 (rawvideo (native) -> h264 (libx264))
Press [q] to stop, [?] for help
frame=   19 fps=0.0 q=0.0 size=       0kB time=00:00:00.00 bitrate=N/A speed=   0x    frame=   33 fps= 31 q=0.0 size=       0kB time=00:00:00.00 bitrate=N/A speed=   0x    frame=   41 fps= 26 q=0.0 size=       0kB time=00:00:00.00 bitrate=N/A speed=   0x    frame=   49 fps= 20 q=0.0 size=       0kB time=00:00:00.00 bitrate=N/A speed=   0x    frame=   57 fps= 10 q=0.0 size=       0kB time=00:00:00.00 bitrate=N/A speed=   0x    frame=   62 fps= 10 q=49.0 size=       1kB time=-00:00:00.01 bitrate=N/A speed=N/A    frame=   68 fps= 10 q=55.0 size=       1kB time=00:00:00.10 bitrate=  58.1kbits/s speed=0.0149x    frame=   73 fps=9.9 q=64.0 size=       1kB time=00:00:00.20 bitrate=  29.2kbits/s speed=0.0274x    frame=   79 fps= 10 q=64.0 size=       1kB time=00:00:00.32 bitrate=  18.3kbits/s speed=0.0408x    frame=   87 fps= 10 q=63.0 size=       1kB time=00:00:00.48 bitrate=  12.2kbits/s speed=0.0574x    frame=   91 fps= 10 q=63.0 size=       1kB time=00:00:00.56 bitrate=  10.5kbits/s speed=0.0631x    frame=   99 fps= 10 q=63.0 size=       1kB time=00:00:00.72 bitrate=   8.1kbits/s speed=0.075x    frame=  107 fps= 11 q=63.0 size=       1kB time=00:00:00.88 bitrate=   6.7kbits/s speed=0.0865x    frame=  115 fps= 11 q=63.0 size=       1kB time=00:00:01.04 bitrate=   5.6kbits/s speed=0.0957x    frame=  123 fps= 11 q=62.0 size=       1kB time=00:00:01.20 bitrate=   4.9kbits/s speed=0.105x    frame=  130 fps= 11 q=62.0 size=       1kB time=00:00:01.34 bitrate=   4.4kbits/s speed=0.112x    frame=  135 fps= 11 q=62.0 size=       1kB time=00:00:01.44 bitrate=   4.1kbits/s speed=0.115x    frame=  143 fps= 11 q=62.0 size=       1kB time=00:00:01.60 bitrate=   3.7kbits/s speed=0.122x    frame=  151 fps= 11 q=61.0 size=       1kB time=00:00:01.76 bitrate=   3.3kbits/s speed=0.128x    frame=  160 fps= 11 q=61.0 size=       1kB time=00:00:01.94 bitrate=   3.0kbits/s speed=0.135x    frame=  167 fps= 11 q=61.0 size=       1kB time=00:00:02.08 bitrate=   2.8kbits/s speed=0.139x    frame=  175 fps= 11 q=61.0 size=       1kB time=00:00:02.24 bitrate=   2.6kbits/s speed=0.143x    frame=  183 fps= 11 q=61.0 size=       1kB time=00:00:02.40 bitrate=   2.4kbits/s speed=0.146x    frame=  191 fps= 11 q=60.0 size=       1kB time=00:00:02.56 bitrate=   2.3kbits/s speed=0.151x    frame=  199 fps= 11 q=60.0 size=       1kB time=00:00:02.72 bitrate=   2.2kbits/s speed=0.155x    frame=  203 fps= 11 q=60.0 size=       1kB time=00:00:02.80 bitrate=   2.1kbits/s speed=0.155x    frame=  211 fps= 11 q=60.0 size=       1kB time=00:00:02.96 bitrate=   2.0kbits/s speed=0.158x    frame=  219 fps= 11 q=60.0 size=       1kB time=00:00:03.12 bitrate=   1.9kbits/s speed=0.162x    frame=  225 fps= 11 q=60.0 size=       1kB time=00:00:03.24 bitrate=   1.8kbits/s speed=0.163x    frame=  231 fps= 11 q=60.0 size=       1kB time=00:00:03.36 bitrate=   1.7kbits/s speed=0.165x    frame=  239 fps= 11 q=60.0 size=       1kB time=00:00:03.52 bitrate=   1.7kbits/s speed=0.168x    frame=  246 fps= 11 q=60.0 size=       1kB time=00:00:03.66 bitrate=   1.6kbits/s speed=0.17x    frame=  251 fps= 11 q=60.0 size=       1kB time=00:00:03.76 bitrate=   1.6kbits/s speed=0.171x    frame=  259 fps= 11 q=60.0 size=       1kB time=00:00:03.92 bitrate=   1.5kbits/s speed=0.173x    frame=  267 fps= 11 q=60.0 size=       1kB time=00:00:04.08 bitrate=   1.4kbits/s speed=0.175x    frame=  274 fps= 11 q=60.0 size=       1kB time=00:00:04.22 bitrate=   1.4kbits/s speed=0.177x    frame=  281 fps= 11 q=60.0 size=       1kB time=00:00:04.36 bitrate=   1.3kbits/s speed=0.178x    frame=  287 fps= 11 q=60.0 size=       1kB time=00:00:04.48 bitrate=   1.3kbits/s speed=0.178x    frame=  295 fps= 11 q=60.0 size=       1kB time=00:00:04.64 bitrate=   1.3kbits/s speed=0.18x    frame=  302 fps= 11 q=60.0 size=       1kB time=00:00:04.78 bitrate=   1.2kbits/s speed=0.182x    frame=  306 fps= 11 q=57.0 size=       1kB time=00:00:04.86 bitrate=   1.2kbits/s speed=0.174x    frame=  315 fps= 11 q=60.0 size=    1240kB time=00:00:05.04 bitrate=2014.9kbits/s speed=0.177x    frame=  322 fps= 11 q=60.0 size=    1240kB time=00:00:05.18 bitrate=1960.4kbits/s speed=0.178x    frame=  327 fps= 11 q=60.0 size=    1240kB time=00:00:05.28 bitrate=1923.3kbits/s speed=0.179x    frame=  334 fps= 11 q=60.0 size=    1240kB time=00:00:05.42 bitrate=1873.6kbits/s speed=0.179x    frame=  341 fps= 11 q=60.0 size=    1240kB time=00:00:05.56 bitrate=1826.5kbits/s speed=0.18x    frame=  349 fps= 11 q=60.0 size=    1240kB time=00:00:05.72 bitrate=1775.4kbits/s speed=0.181x    frame=  357 fps= 11 q=60.0 size=    1240kB time=00:00:05.88 bitrate=1727.1kbits/s speed=0.182x    frame=  361 fps= 11 q=60.0 size=    1240kB time=00:00:05.96 bitrate=1703.9kbits/s speed=0.182x    frame=  368 fps= 11 q=60.0 size=    1240kB time=00:00:06.10 bitrate=1664.8kbits/s speed=0.183x    frame=  373 fps= 11 q=60.0 size=    1240kB time=00:00:06.20 bitrate=1638.0kbits/s speed=0.183x    frame=  379 fps= 11 q=60.0 size=    1240kB time=00:00:06.32 bitrate=1606.9kbits/s speed=0.184x    frame=  385 fps= 11 q=60.0 size=    1240kB time=00:00:06.44 bitrate=1576.9kbits/s speed=0.185x    frame=  391 fps= 11 q=60.0 size=    1240kB time=00:00:06.56 bitrate=1548.1kbits/s speed=0.185x    frame=  397 fps= 11 q=60.0 size=    1240kB time=00:00:06.68 bitrate=1520.3kbits/s speed=0.186x    frame=  404 fps= 11 q=60.0 size=    1240kB time=00:00:06.82 bitrate=1489.1kbits/s speed=0.187x    frame=  409 fps= 11 q=60.0 size=    1240kB time=00:00:06.92 bitrate=1467.6kbits/s speed=0.187x    frame=  415 fps= 11 q=60.0 size=    1240kB time=00:00:07.04 bitrate=1442.5kbits/s speed=0.188x    frame=  422 fps= 11 q=60.0 size=    1240kB time=00:00:07.18 bitrate=1414.4kbits/s speed=0.189x    frame=  426 fps= 11 q=60.0 size=    1240kB time=00:00:07.26 bitrate=1398.8kbits/s speed=0.188x    frame=  433 fps= 11 q=60.0 size=    1240kB time=00:00:07.40 bitrate=1372.4kbits/s speed=0.188x    frame=  441 fps= 11 q=60.0 size=    1240kB time=00:00:07.56 bitrate=1343.3kbits/s speed=0.189x    frame=  446 fps= 11 q=60.0 size=    1240kB time=00:00:07.66 bitrate=1325.8kbits/s speed=0.189x    frame=  454 fps= 11 q=60.0 size=    1240kB time=00:00:07.82 bitrate=1298.7kbits/s speed=0.19x    frame=  461 fps= 11 q=60.0 size=    1240kB time=00:00:07.96 bitrate=1275.8kbits/s speed=0.19x    frame=  469 fps= 11 q=60.0 size=    1240kB time=00:00:08.12 bitrate=1250.7kbits/s speed=0.19x    frame=  476 fps= 11 q=60.0 size=    1240kB time=00:00:08.26 bitrate=1229.5kbits/s speed=0.191x    frame=  482 fps= 11 q=60.0 size=    1240kB time=00:00:08.38 bitrate=1211.9kbits/s speed=0.192x    frame=  486 fps= 11 q=60.0 size=    1240kB time=00:00:08.46 bitrate=1200.4kbits/s speed=0.191x    frame=  493 fps= 11 q=60.0 size=    1240kB time=00:00:08.60 bitrate=1180.9kbits/s speed=0.192x    frame=  498 fps= 11 q=61.0 size=    1240kB time=00:00:08.70 bitrate=1167.3kbits/s speed=0.192x    frame=  500 fps= 10 q=-1.0 Lsize=    2551kB time=00:00:09.94 bitrate=2102.1kbits/s speed=0.199x    
video:2547kB audio:0kB subtitle:0kB other streams:0kB global headers:0kB muxing overhead: 0.165812%
bench: utime=165.348s
bench: maxrss=2126972kB
[libx264 @ 0x30961c0] frame I:2     Avg QP:47.34  size: 72294
[libx264 @ 0x30961c0] frame P:126   Avg QP:50.95  size: 13621
[libx264 @ 0x30961c0] frame B:372   Avg QP:50.97  size:  2006
[libx264 @ 0x30961c0] consecutive B-frames:  0.8%  0.0%  0.0% 99.2%
[libx264 @ 0x30961c0] mb I  I16..4: 66.4% 32.6%  1.1%
[libx264 @ 0x30961c0] mb P  I16..4: 16.2%  2.7%  0.0%  P16..4:  9.6%  0.3%  4.1%  0.0%  0.0%    skip:67.2%
[libx264 @ 0x30961c0] mb B  I16..4:  0.0%  0.0%  0.0%  B16..8:  6.9%  0.0%  0.0%  direct: 0.0%  skip:93.1%  L0:25.8% L1:74.1% BI: 0.0%
[libx264 @ 0x30961c0] final ratefactor: 52.40
[libx264 @ 0x30961c0] 8x8 transform intra:15.6% inter:95.5%
[libx264 @ 0x30961c0] direct mvs  spatial:98.9% temporal:1.1%
[libx264 @ 0x30961c0] coded y,uvDC,uvAC intra: 1.5% 32.4% 0.6% inter: 0.0% 0.8% 0.0%
[libx264 @ 0x30961c0] i16 v,h,dc,p: 73% 19%  4%  4%
[libx264 @ 0x30961c0] i8 v,h,dc,ddl,ddr,vr,hd,vl,hu:  4%  3% 76%  4%  3%  3%  3%  3%  2%
[libx264 @ 0x30961c0] i4 v,h,dc,ddl,ddr,vr,hd,vl,hu:  6%  4%  4% 16% 16% 14% 13% 10% 17%
[libx264 @ 0x30961c0] i8c dc,h,v,p: 90%  4%  5%  0%
[libx264 @ 0x30961c0] Weighted P-Frames: Y:1.6% UV:0.8%
[libx264 @ 0x30961c0] ref P L0: 69.3%  0.3% 15.3%  7.6%  7.4%  0.1%
[libx264 @ 0x30961c0] ref B L0: 86.4%  6.3%  5.4%  1.9%
[libx264 @ 0x30961c0] ref B L1: 97.4%  2.6%
[libx264 @ 0x30961c0] kb/s:2085.67
